<?xml version="1.0" encoding="utf-8"?>
<?xml-stylesheet type="text/css" href="Home_svg.css" ?>
<!-- Generator: Adobe Illustrator 24.0.1, SVG Export Plug-In . SVG Version: 6.00 Build 0)  -->
<svg version="1.1" id="Layer_1" xmlns="http://www.w3.org/2000/svg" xmlns:xlink="http://www.w3.org/1999/xlink" x="0px" y="0px"
	 viewBox="0 0 400 400" style="enable-background:new 0 0 400 400;" xml:space="preserve">
<style type="text/css">
	.st1{font-family:'MyriadPro-Regular';}
	.st2{font-size:12px;}
</style>
<path class="st0" d="M197.5,53.5v41c0,11.2,15.9,18.5,29.4,13.5l0,0c27.5-10.2,59.9,4.7,59.9,27.5l0,0c0,22.9-32.4,37.8-59.9,27.5
	l-42.7-15.9c-34.9-13-75.9,5.9-75.9,34.9l0,0c0,26.3,34.3,45.1,68.1,37.2l48.4-11.3c30.8-7.1,62,9.9,62,33.9l0,0
	c0,24.8-33.3,42-64.5,33.3l-62.9-17.5c-24.7-6.9-51.1,6.7-51.1,26.3l0,0c0,22.1,32.7,35.5,57.8,23.8l0,0c13.7-6.4,31.4,1,31.4,13
	V343"/>
<g id="born">
	<circle cx="286.8" cy="140" r="6.1"/>
	<text transform="matrix(1 0 0 1 299.0713 136.3279)"><tspan x="0" y="0" class="st1 st2">Born in</tspan><tspan x="0" y="14.4" class="st1 st2">1996</tspan></text>
</g>
<g id="Enlight">
	<circle cx="196.9" cy="343" r="6.1"/>
	<text transform="matrix(1 0 0 1 184.6068 365.6561)"><tspan x="0" y="0" class="st1 st2">2020</tspan><tspan x="-18.2" y="14.4" class="st1 st2">Enlightened</tspan></text>
</g>
<g id="story">
	<circle cx="196.9" cy="56.2" r="6.1"/>
	<text transform="matrix(1 0 0 1 175.0785 30.8574)"><tspan x="0" y="0" class="st1 st2">My kutty</tspan><tspan x="8.8" y="14.4" class="st1 st2">Story</tspan></text>
</g>
<g id="collegest">
	<circle cx="286.8" cy="238.3" r="6.1"/>
	<text transform="matrix(1 0 0 1 299.0713 234.639)"><tspan x="0" y="0" class="st1 st2">Started </tspan><tspan x="0" y="14.4" class="st1 st2">College,</tspan><tspan x="0" y="28.8" class="st1 st2">BE (ECE) in</tspan><tspan x="0" y="43.2" class="st1 st2">2014</tspan></text>
</g>
<g id="school">
	<circle cx="108.5" cy="187.8" r="6.1"/>
	<text transform="matrix(1 0 0 1 39.8517 176.968)"><tspan x="0" y="0" class="st1 st2">Completed</tspan><tspan x="-9.2" y="14.4" class="st1 st2">Schooling by</tspan><tspan x="31.4" y="28.8" class="st1 st2">2014</tspan></text>
</g>
<g id="collegeed">
	<circle cx="108.5" cy="283.7" r="6.1"/>
	<text transform="matrix(1 0 0 1 39.8517 272.8239)"><tspan x="0" y="0" class="st1 st2">Completed</tspan><tspan x="3" y="14.4" class="st1 st2">College by</tspan><tspan x="31.4" y="28.8" class="st1 st2">2018</tspan></text>
</g>
</svg>
