<?xml version="1.0" encoding="utf-8"?>
<!-- Generator: Adobe Illustrator 24.0.1, SVG Export Plug-In . SVG Version: 6.00 Build 0)  -->
<svg version="1.1" id="Layer_1" xmlns="http://www.w3.org/2000/svg" xmlns:xlink="http://www.w3.org/1999/xlink" x="0px" y="0px"
	 viewBox="0 0 1080 1080" style="enable-background:new 0 0 1080 1080;" xml:space="preserve">
<style type="text/css">
	.st0{fill:none;stroke:#000000;stroke-width:3.0597;stroke-miterlimit:10;}
	.st1{stroke:#000000;stroke-width:3.0597;stroke-miterlimit:10;}
	.st2{fill:none;stroke:#000000;stroke-width:2.6348;stroke-miterlimit:10;}
	.st3{fill:none;stroke:#000000;stroke-width:1.7324;stroke-miterlimit:10;}
	.st4{fill:none;stroke:#000000;stroke-width:1.0661;stroke-miterlimit:10;}
</style>
<polyline class="st0" points="751.21,608 751.21,188.54 307.54,188.54 307.54,852.5 751.21,852.5 751.21,670.08 "/>
<rect x="362.62" y="243.61" width="82.61" height="165.23"/>
<polygon points="474.3,410.37 364.15,245.14 443.7,245.14 556.91,410.37 "/>
<path d="M629.22,343.22c0.23-3.85,0.23-7.75-0.22-11.62c-0.21-1.99-0.58-3.98-1.15-5.92c-0.58-1.91-1.26-3.92-2.62-5.42
	c0.79,3.82,0.05,7.57-0.48,11.27c-0.59,3.45-1.33,6.89-2.12,10.3c-0.05,0.23-0.11,0.47-0.16,0.7c-0.9,3.66-1.8,7.3-2.78,10.95
	c-0.5,1.85-0.97,3.52-1.4,5.64c-0.04,0.22-0.08,0.45-0.12,0.67l-6.18,9.27l-27.54,41.31h-82.61l110.15-160.76l3.06-4.47h79.55
	L629.22,343.22z"/>
<path d="M650.48,321.36c2.29-2.97,5.17-5.26,7.8-7.83c2.82-2.6,5.2-4.5,7.83-6.64c5.18-4.23,10.22-8.51,15.3-12.82
	c0.31-0.28,0.65-0.55,0.95-0.83c4.15-3.63,8.27-7.33,12.24-11.19v-36.91h-82.61v165.23h32.68c-0.31-4.04-0.25-8.17,0.27-12.27
	c1.41-14.63,8.11-28.89,17.78-40.02c2.29-2.97,5.17-5.27,7.8-7.84c2.82-2.6,5.2-4.49,7.83-6.64c5.17-4.22,10.22-8.5,15.3-12.82
	c0.31-0.27,0.64-0.55,0.95-0.82V296.6c-1.48,2-3.02,3.96-4.59,5.88c-2.45,2.94-5.02,5.81-7.65,8.6c-2.14,2.26-4.34,4.47-6.61,6.64
	c-2.41,2.35-5.26,4.77-7.28,6.97c-2.14,2.24-4.62,4.2-6.43,6.7c-8.01,9.31-14.28,20.05-17.56,32.22c-1.01,3.25-1.74,6.61-2.29,10.04
	c-0.46,2.91-0.83,5.87-1.1,8.87c-0.62,6.55-0.59,13.25-0.03,20.2c-3.8-5.94-5.91-12.76-7.44-19.74c-0.58-3.06-1.01-6.18-1.19-9.33
	c-0.31-4.04-0.25-8.17,0.27-12.27C634.11,346.75,640.81,332.5,650.48,321.36z M633.24,396.5c1.89,3.21,4.13,6.28,6.68,9.29
	c-3.71-1.47-6.94-3.91-9.95-6.6c-1.28-1.22-2.51-2.51-3.64-3.89c-1.48-1.76-2.82-3.68-3.94-5.73c-4.19-7.18-5.84-15.95-5.09-24.27
	c0.06-1.89,0.51-3.69,0.87-5.51c0.04-0.22,0.08-0.45,0.12-0.67c0.43-2.12,0.9-3.79,1.4-5.64c0.98-3.65,1.88-7.29,2.78-10.95
	c0.05-0.23,0.11-0.47,0.16-0.7c0.79-3.41,1.53-6.85,2.12-10.3c0.53-3.7,1.27-7.45,0.48-11.27c1.36,1.5,2.04,3.51,2.62,5.42
	c0.57,1.94,0.94,3.93,1.15,5.92c0.45,3.87,0.45,7.77,0.22,11.62c-0.01,0.11-0.01,0.21-0.02,0.32c-0.15,2.16-0.38,4.33-0.66,6.48
	c-0.24,1.75-0.52,3.49-0.84,5.24c-0.33,1.88-0.83,3.94-1.03,5.62c-0.25,1.73-0.73,3.45-0.73,5.2c-0.6,6.93,0.07,13.94,2.6,20.61
	c0.61,1.83,1.39,3.62,2.27,5.37C631.56,393.55,632.38,395.03,633.24,396.5z"/>
<path d="M687.99,354.43c-2.42,2.36-5.26,4.78-7.28,6.98c-2.14,2.23-4.62,4.19-6.43,6.7c-8.01,9.3-14.29,20.04-17.56,32.22
	c-1.01,3.24-1.74,6.61-2.29,10.04h40.17V347.8C692.46,350.06,690.26,352.26,687.99,354.43z M692.56,374.46
	c-0.66,0.91-1.41,1.76-2.2,2.53c-1.59,1.57-3.36,2.93-5.18,4.18c-1,0.68-2.03,1.32-3.07,1.93c-0.85,0.5-1.71,0.97-2.59,1.43
	c-0.93,0.5-2.01,0.98-2.81,1.47c-0.85,0.49-1.77,0.87-2.54,1.47c-3.24,2.11-6.09,4.81-8.15,8.21c-0.59,0.89-1.11,1.85-1.58,2.83
	c-0.39,0.84-0.77,1.71-1.11,2.59c-0.76,1.93-1.34,3.96-1.79,6.12c-0.63-2.14-0.66-4.39-0.51-6.63c0.09-0.98,0.23-1.96,0.46-2.93
	c0.26-1.25,0.64-2.5,1.16-3.69c1.71-4.31,4.99-8.04,8.9-10.56c0.96-0.7,2.03-1.14,3.05-1.68c1.08-0.54,1.97-0.91,2.96-1.32
	c1.94-0.83,3.84-1.68,5.76-2.54c0.12-0.06,0.24-0.11,0.36-0.17c1.77-0.82,3.53-1.67,5.25-2.6c1.8-1.03,3.7-2,5.11-3.65
	C693.84,372.56,693.2,373.55,692.56,374.46z"/>
<polyline class="st0" points="696.13,632.74 696.13,794.36 613.52,794.36 613.52,546.53 446.76,546.53 446.76,794.36 364.15,794.36 
	364.15,463.91 696.13,463.91 696.13,571 "/>
<path class="st1" d="M545.87,629.14c-1.65,1.93-3.27,3.86-4.93,5.75h37.39V706h-94.85v-13.25c-2.54,2.23-5.08,4.47-7.65,6.64v12.36
	h110.15v-82.61H545.87z M493.7,629.14c-0.06,0.06-0.12,0.15-0.18,0.21c-1.68,1.9-3.4,3.73-5.17,5.54h17.29
	c2.11-1.93,4.22-3.86,6.39-5.75H493.7z M475.83,629.14v9.3c1.32-1.32,2.66-2.63,4.04-3.89c2.02-1.87,4.07-3.67,6.21-5.42H475.83z
	 M475.83,646v19.18c2.51-2.85,5.05-5.63,7.65-8.38v-17.29C481.03,641.81,478.46,643.95,475.83,646z M477.91,673.29
	c-0.7,0.61-1.38,1.19-2.08,1.77v14.66c0.98-1.13,1.96-2.23,2.94-3.34c1.53-1.74,3.09-3.49,4.71-5.23v-12.82
	C481.64,669.99,479.78,671.64,477.91,673.29z M521.54,629.14c-1.01,1.22-2.05,2.42-3.09,3.61c-0.61,0.7-1.25,1.44-1.9,2.14h13.55
	c0.46-0.43,0.95-0.86,1.44-1.29c1.68-1.5,3.4-3,5.11-4.47H521.54z"/>
<path class="st0" d="M505.63,634.89c-4.47,4.07-8.81,8.26-13.07,12.51c-3.09,3.09-6.12,6.21-9.09,9.39v-17.29
	c0.18-0.15,0.37-0.31,0.55-0.49c1.47-1.35,2.91-2.72,4.31-4.13H505.63z"/>
<path class="st0" d="M530.11,634.89c-8.87,7.83-17.41,15.97-25.73,24.32c-7.13,7.16-14.14,14.44-20.9,21.94v-12.82
	c5.26-4.74,10.37-9.61,15.39-14.63c6.09-6.06,11.99-12.36,17.69-18.82H530.11z"/>
<path class="st0" d="M578.33,634.89V706h-94.85v-13.25c0.31-0.24,0.58-0.49,0.89-0.76c9.36-8.23,18.36-16.83,27.17-25.61
	s17.38-17.81,25.61-27.17c1.25-1.44,2.54-2.88,3.79-4.31H578.33z"/>
<path class="st2" d="M505.63,634.89c-4.47,4.07-8.81,8.26-13.07,12.51c-3.09,3.09-6.12,6.21-9.09,9.39v-17.29
	c0.18-0.15,0.37-0.31,0.55-0.49c1.47-1.35,2.91-2.72,4.31-4.13H505.63z"/>
<path class="st2" d="M530.11,634.89c-8.87,7.83-17.41,15.97-25.73,24.32c-7.13,7.16-14.14,14.44-20.9,21.94v-12.82
	c5.26-4.74,10.37-9.61,15.39-14.63c6.09-6.06,11.99-12.36,17.69-18.82H530.11z"/>
<path class="st2" d="M578.33,634.89V706h-94.85v-13.25c0.31-0.24,0.58-0.49,0.89-0.76c9.36-8.23,18.36-16.83,27.17-25.61
	s17.38-17.81,25.61-27.17c1.25-1.44,2.54-2.88,3.79-4.31H578.33z"/>
<path class="st0" d="M706.53,275.49c-1.19,3.37-2.72,6.61-4.46,9.67c-2.23,3.99-4.76,7.79-7.47,11.44c-1.48,2-3.02,3.96-4.59,5.88
	c-2.45,2.94-5.02,5.81-7.65,8.6c-2.14,2.26-4.34,4.47-6.61,6.64c-2.41,2.35-5.26,4.77-7.28,6.97c-2.14,2.24-4.62,4.2-6.43,6.7
	c-8.01,9.31-14.28,20.05-17.56,32.22c-1.01,3.25-1.74,6.61-2.29,10.04c-0.46,2.91-0.83,5.87-1.1,8.87
	c-0.62,6.55-0.59,13.25-0.03,20.2c-3.8-5.94-5.91-12.76-7.44-19.74c-0.58-3.06-1.01-6.18-1.19-9.33c-0.31-4.04-0.25-8.17,0.27-12.27
	c1.41-14.63,8.11-28.88,17.78-40.02c2.29-2.97,5.17-5.26,7.8-7.83c2.82-2.6,5.2-4.5,7.83-6.64c5.18-4.23,10.22-8.51,15.3-12.82
	c0.31-0.28,0.65-0.55,0.95-0.83c4.15-3.63,8.27-7.33,12.24-11.19c0.48-0.45,0.96-0.92,1.44-1.39c4.59-4.74,9.51-9.36,12.33-15.63
	C708.77,268.58,707.67,272.16,706.53,275.49z"/>
<circle class="st3" cx="365.68" cy="258.91" r="39.78"/>
<circle class="st4" cx="446.76" cy="395.07" r="24.48"/>
<polygon points="803.62,577.2 635.27,699.07 801.48,646.98 "/>
<polygon points="705.64,557.45 665.93,663.75 725.76,589.82 "/>
<g>
	<polygon points="364.15,767.88 393.22,769.55 364.15,771.22 	"/>
</g>
<g>
	<g>
		<polygon points="364.15,759.6 382.51,760.37 364.15,761.13 		"/>
	</g>
	<g>
		<polygon points="364.15,751.27 382.51,752.04 364.15,752.8 		"/>
	</g>
	<g>
		<polygon points="364.15,742.94 382.51,743.71 364.15,744.47 		"/>
	</g>
	<g>
		<polygon points="364.15,734.61 382.51,735.38 364.15,736.14 		"/>
	</g>
	<g>
		<polygon points="364.15,726.29 382.51,727.05 364.15,727.82 		"/>
	</g>
</g>
<g>
	<g>
		<polygon points="364.15,701.47 382.51,702.23 364.15,703 		"/>
	</g>
	<g>
		<polygon points="364.15,693.14 382.51,693.9 364.15,694.67 		"/>
	</g>
	<g>
		<polygon points="364.15,684.81 382.51,685.57 364.15,686.34 		"/>
	</g>
	<g>
		<polygon points="364.15,676.48 382.51,677.24 364.15,678.01 		"/>
	</g>
	<g>
		<polygon points="364.15,668.15 382.51,668.92 364.15,669.68 		"/>
	</g>
</g>
<g>
	<g>
		<polygon points="364.15,646.39 382.51,647.16 364.15,647.92 		"/>
	</g>
	<g>
		<polygon points="364.15,638.06 382.51,638.83 364.15,639.59 		"/>
	</g>
	<g>
		<polygon points="364.15,629.73 382.51,630.5 364.15,631.26 		"/>
	</g>
	<g>
		<polygon points="364.15,621.4 382.51,622.17 364.15,622.93 		"/>
	</g>
	<g>
		<polygon points="364.15,613.07 382.51,613.84 364.15,614.6 		"/>
	</g>
</g>
<g>
	<g>
		<polygon points="364.15,591.32 382.51,592.08 364.15,592.85 		"/>
	</g>
	<g>
		<polygon points="364.15,582.99 382.51,583.75 364.15,584.52 		"/>
	</g>
	<g>
		<polygon points="364.15,574.66 382.51,575.42 364.15,576.19 		"/>
	</g>
	<g>
		<polygon points="364.15,566.33 382.51,567.09 364.15,567.86 		"/>
	</g>
	<g>
		<polygon points="364.15,558 382.51,558.76 364.15,559.53 		"/>
	</g>
</g>
<g>
	<polygon points="364.15,712.8 393.22,714.47 364.15,716.14 	"/>
</g>
<g>
	<polygon points="364.15,657.73 393.22,659.4 364.15,661.07 	"/>
</g>
<g>
	<polygon points="364.15,602.65 393.22,604.32 364.15,605.99 	"/>
</g>
<g>
	<polygon points="364.15,547.58 393.22,549.25 364.15,550.92 	"/>
</g>
<g>
	<g>
		<circle cx="603.57" cy="452.82" r="2.68"/>
		<circle cx="620.4" cy="452.82" r="2.68"/>
		<circle cx="637.23" cy="452.82" r="2.68"/>
		<circle cx="654.06" cy="452.82" r="2.68"/>
		<circle cx="670.89" cy="452.82" r="2.68"/>
		<circle cx="687.72" cy="452.82" r="2.68"/>
		<circle cx="704.54" cy="452.82" r="2.68"/>
		<circle cx="721.37" cy="452.82" r="2.68"/>
	</g>
	<g>
		<circle cx="603.57" cy="472.9" r="2.68"/>
		<circle cx="620.4" cy="472.9" r="2.68"/>
		<circle cx="637.23" cy="472.9" r="2.68"/>
		<circle cx="654.06" cy="472.9" r="2.68"/>
		<circle cx="670.89" cy="472.9" r="2.68"/>
		<circle cx="687.72" cy="472.9" r="2.68"/>
		<circle cx="704.54" cy="472.9" r="2.68"/>
		<circle cx="721.37" cy="472.9" r="2.68"/>
	</g>
	<g>
		<circle cx="603.57" cy="492.98" r="2.68"/>
		<circle cx="620.4" cy="492.98" r="2.68"/>
		<circle cx="637.23" cy="492.98" r="2.68"/>
		<circle cx="654.06" cy="492.98" r="2.68"/>
		<circle cx="670.89" cy="492.98" r="2.68"/>
		<circle cx="687.72" cy="492.98" r="2.68"/>
		<circle cx="704.54" cy="492.98" r="2.68"/>
		<circle cx="721.37" cy="492.98" r="2.68"/>
	</g>
	<g>
		<circle cx="603.57" cy="513.06" r="2.68"/>
		<circle cx="620.4" cy="513.06" r="2.68"/>
		<circle cx="637.23" cy="513.06" r="2.68"/>
		<circle cx="654.06" cy="513.06" r="2.68"/>
		<circle cx="670.89" cy="513.06" r="2.68"/>
		<circle cx="687.72" cy="513.06" r="2.68"/>
		<circle cx="704.54" cy="513.06" r="2.68"/>
		<circle cx="721.37" cy="513.06" r="2.68"/>
	</g>
	<g>
		<circle cx="603.57" cy="533.14" r="2.68"/>
		<circle cx="620.4" cy="533.14" r="2.68"/>
		<circle cx="637.23" cy="533.14" r="2.68"/>
		<circle cx="654.06" cy="533.14" r="2.68"/>
		<circle cx="670.89" cy="533.14" r="2.68"/>
		<circle cx="687.72" cy="533.14" r="2.68"/>
		<circle cx="704.54" cy="533.14" r="2.68"/>
		<circle cx="721.37" cy="533.14" r="2.68"/>
	</g>
</g>
</svg>
